<svg width="512" height="512" viewBox="0 0 512 512" fill="none" xmlns="http://www.w3.org/2000/svg">
<path d="M285.083 399.597C297.073 392.104 312.923 395.774 320.417 407.764C327.908 419.753 324.239 435.604 312.25 443.097L269.583 469.764C261.285 474.942 250.713 474.949 242.417 469.764L199.75 443.097L195.667 439.847C187.059 431.638 185.116 418.245 191.667 407.764C198.226 397.294 211.104 393.198 222.25 397.347L226.917 399.597L230.417 401.764V400.014C230.417 385.878 241.864 374.434 256 374.43C270.136 374.43 281.58 385.877 281.583 400.014V401.764L285.083 399.597ZM59.75 298.68C59.75 284.546 71.2004 273.104 85.3333 273.097C99.4718 273.097 110.917 284.542 110.917 298.68V327.097L141.583 346.264L145.667 349.514C154.285 357.721 156.303 371.111 149.75 381.597C143.191 392.091 130.243 396.179 119.083 392.014L114.417 389.764L71.75 363.097C64.2658 358.419 59.75 350.173 59.75 341.347V298.68ZM401.083 298.68C401.083 284.546 412.534 273.104 426.667 273.097C440.805 273.097 452.25 284.542 452.25 298.68V341.347C452.25 350.174 447.735 358.419 440.25 363.097L397.583 389.764C385.604 397.239 369.83 393.562 362.333 381.597C354.84 369.608 358.428 353.757 370.417 346.264L401.083 327.097V298.68ZM230.417 304.014L230.333 271.847L201.833 257.597L197.417 254.847C188.057 247.498 184.895 234.325 190.417 223.264C195.952 212.189 208.407 206.834 219.917 209.93L224.75 211.764L255.917 227.347L287.167 211.764C299.813 205.442 315.178 210.617 321.5 223.264C327.816 235.909 322.728 251.277 310.083 257.597L281.583 271.847V304.014C281.583 318.144 270.128 329.584 256 329.597C241.862 329.601 230.42 318.152 230.417 304.014ZM59.75 213.347V170.68C59.747 166.838 60.5039 162.936 62.3333 159.264C64.5339 154.862 67.8521 151.345 71.75 148.93L114.417 122.264C126.406 114.77 142.257 118.441 149.75 130.43C157.242 142.42 153.572 158.271 141.583 165.764L137.583 168.18L139.333 169.097C151.971 175.414 157.135 190.789 150.833 203.43C145.303 214.494 132.834 219.841 121.333 216.764L116.5 214.93L110.917 212.097V213.347C110.917 227.486 99.4718 238.93 85.3333 238.93C71.2004 238.924 59.75 227.482 59.75 213.347ZM249 39.3471C255.85 37.4005 263.358 38.3796 269.583 42.2638L312.25 68.9305L316.333 72.1805C324.952 80.3877 326.969 93.7774 320.417 104.264C313.858 114.758 300.91 118.846 289.75 114.68L285.083 112.43L256 94.1805L226.917 112.43C214.937 119.905 199.163 116.228 191.667 104.264C184.174 92.2748 187.762 76.4242 199.75 68.9305L242.417 42.2638L249 39.3471ZM452.25 213.347C452.25 227.486 440.805 238.93 426.667 238.93C412.534 238.924 401.083 227.482 401.083 213.347V212.097L395.417 214.93C382.776 221.228 367.4 216.067 361.083 203.43C354.786 190.79 359.947 175.413 372.583 169.097L374.333 168.18L370.417 165.764L366.333 162.514C357.725 154.305 355.782 140.912 362.333 130.43C368.893 119.961 381.77 115.865 392.917 120.014L397.583 122.264L440.25 148.93C447.735 153.609 452.25 161.854 452.25 170.68V213.347Z" fill="black"/>
</svg>
