<svg width="1280" height="640" viewBox="0 0 1280 640" fill="none" xmlns="http://www.w3.org/2000/svg">
<path d="M349.083 463.597C361.073 456.104 376.923 459.774 384.417 471.764C391.908 483.753 388.239 499.604 376.25 507.097L333.583 533.764C325.285 538.942 314.713 538.949 306.417 533.764L263.75 507.097L259.667 503.847C251.059 495.638 249.116 482.245 255.667 471.764C262.226 461.294 275.104 457.198 286.25 461.347L290.917 463.597L294.417 465.764V464.014C294.417 449.878 305.864 438.434 320 438.43C334.136 438.43 345.58 449.877 345.583 464.014V465.764L349.083 463.597ZM123.75 362.68C123.75 348.546 135.2 337.104 149.333 337.097C163.472 337.097 174.917 348.542 174.917 362.68V391.097L205.583 410.264L209.667 413.514C218.285 421.721 220.303 435.111 213.75 445.597C207.191 456.091 194.243 460.179 183.083 456.014L178.417 453.764L135.75 427.097C128.266 422.419 123.75 414.173 123.75 405.347V362.68ZM465.083 362.68C465.083 348.546 476.534 337.104 490.667 337.097C504.805 337.097 516.25 348.542 516.25 362.68V405.347C516.25 414.174 511.735 422.419 504.25 427.097L461.583 453.764C449.604 461.239 433.83 457.562 426.333 445.597C418.84 433.608 422.428 417.757 434.417 410.264L465.083 391.097V362.68ZM294.417 368.014L294.333 335.847L265.833 321.597L261.417 318.847C252.057 311.498 248.895 298.325 254.417 287.264C259.952 276.189 272.407 270.834 283.917 273.93L288.75 275.764L319.917 291.347L351.167 275.764C363.813 269.442 379.178 274.617 385.5 287.264C391.816 299.909 386.728 315.277 374.083 321.597L345.583 335.847V368.014C345.583 382.144 334.128 393.584 320 393.597C305.862 393.601 294.42 382.152 294.417 368.014ZM123.75 277.347V234.68C123.747 230.838 124.504 226.936 126.333 223.264C128.534 218.862 131.852 215.345 135.75 212.93L178.417 186.264C190.406 178.77 206.257 182.441 213.75 194.43C221.242 206.42 217.572 222.271 205.583 229.764L201.583 232.18L203.333 233.097C215.971 239.414 221.135 254.789 214.833 267.43C209.303 278.494 196.834 283.841 185.333 280.764L180.5 278.93L174.917 276.097V277.347C174.917 291.486 163.472 302.93 149.333 302.93C135.2 302.924 123.75 291.482 123.75 277.347ZM313 103.347C319.85 101.401 327.358 102.38 333.583 106.264L376.25 132.93L380.333 136.18C388.952 144.388 390.969 157.777 384.417 168.264C377.858 178.758 364.91 182.846 353.75 178.68L349.083 176.43L320 158.18L290.917 176.43C278.937 183.905 263.163 180.228 255.667 168.264C248.174 156.275 251.762 140.424 263.75 132.93L306.417 106.264L313 103.347ZM516.25 277.347C516.25 291.486 504.805 302.93 490.667 302.93C476.534 302.924 465.083 291.482 465.083 277.347V276.097L459.417 278.93C446.776 285.228 431.4 280.067 425.083 267.43C418.786 254.79 423.947 239.414 436.583 233.097L438.333 232.18L434.417 229.764L430.333 226.514C421.725 218.305 419.782 204.912 426.333 194.43C432.893 183.961 445.77 179.865 456.917 184.014L461.583 186.264L504.25 212.93C511.735 217.609 516.25 225.854 516.25 234.68V277.347Z" fill="black"/>
<path d="M650.018 253.072C650.018 261.08 652.254 267.424 656.726 272.104C661.198 276.68 667.074 278.968 674.354 278.968C681.426 278.968 687.094 276.68 691.358 272.104C695.726 267.424 697.91 261.08 697.91 253.072V188.8H722.558V253.072C722.558 262.536 720.582 270.804 716.63 277.876C712.782 284.844 707.218 290.252 699.938 294.1C692.762 297.844 684.182 299.716 674.198 299.716C664.214 299.716 655.53 297.844 648.146 294.1C640.866 290.252 635.25 284.844 631.298 277.876C627.346 270.804 625.37 262.536 625.37 253.072V188.8H650.018V253.072Z" fill="black"/>
<path d="M803.979 252.136C803.979 246.624 802.472 242.308 799.456 239.188C796.544 236.068 792.539 234.508 787.443 234.508C781.515 234.612 776.836 236.744 773.404 240.904C769.972 245.064 768.255 250.316 768.255 256.66H762.172C762.172 246.884 763.575 238.824 766.383 232.48C769.295 226.032 773.352 221.248 778.552 218.128C783.856 214.904 790.095 213.292 797.271 213.292C803.511 213.292 808.919 214.644 813.495 217.348C818.175 219.948 821.764 223.64 824.26 228.424C826.756 233.208 828.003 238.876 828.003 245.428V298H803.979V252.136ZM744.232 214.228H768.255V298H744.232V214.228Z" fill="black"/>
<path d="M848.739 214.228H872.763V298H848.739V214.228ZM860.751 177.256C864.599 177.256 867.719 178.504 870.111 181C872.607 183.496 873.855 186.616 873.855 190.36C873.855 194.104 872.607 197.224 870.111 199.72C867.719 202.216 864.599 203.464 860.751 203.464C857.111 203.464 854.043 202.216 851.547 199.72C849.051 197.224 847.803 194.104 847.803 190.36C847.803 186.616 849.051 183.496 851.547 181C854.043 178.504 857.111 177.256 860.751 177.256Z" fill="black"/>
<path d="M947.138 213.448C955.042 213.448 961.906 215.268 967.73 218.908C973.658 222.444 978.286 227.436 981.614 233.884C984.942 240.332 986.606 247.872 986.606 256.504C986.606 264.928 984.994 272.312 981.77 278.656C978.546 285 974.022 289.94 968.198 293.476C962.374 297.012 955.51 298.78 947.606 298.78C940.326 298.78 934.086 297.116 928.886 293.788C923.686 290.356 919.682 285.468 916.874 279.124C914.066 272.676 912.662 265.136 912.662 256.504C912.662 247.56 914.014 239.864 916.718 233.416C919.526 226.968 923.478 222.028 928.574 218.596C933.774 215.164 939.962 213.448 947.138 213.448ZM941.522 232.168C937.466 232.168 933.826 233.208 930.602 235.288C927.482 237.264 925.038 240.02 923.27 243.556C921.502 247.092 920.618 251.2 920.618 255.88C920.618 260.56 921.502 264.72 923.27 268.36C925.038 271.896 927.482 274.652 930.602 276.628C933.826 278.604 937.466 279.592 941.522 279.592C945.682 279.592 949.322 278.604 952.442 276.628C955.562 274.652 957.954 271.896 959.618 268.36C961.386 264.72 962.27 260.56 962.27 255.88C962.27 251.304 961.386 247.248 959.618 243.712C957.954 240.072 955.562 237.264 952.442 235.288C949.322 233.208 945.682 232.168 941.522 232.168ZM896.594 182.248H920.618V298H896.594V182.248Z" fill="black"/>
<path d="M1040.36 213.448C1049.31 213.448 1057.16 215.216 1063.92 218.752C1070.68 222.288 1075.93 227.28 1079.67 233.728C1083.42 240.072 1085.29 247.508 1085.29 256.036C1085.29 264.564 1083.42 272.052 1079.67 278.5C1075.93 284.948 1070.68 289.94 1063.92 293.476C1057.16 297.012 1049.31 298.78 1040.36 298.78C1031.42 298.78 1023.51 297.012 1016.65 293.476C1009.89 289.94 1004.64 284.948 1000.89 278.5C997.15 272.052 995.278 264.564 995.278 256.036C995.278 247.508 997.15 240.072 1000.89 233.728C1004.64 227.28 1009.89 222.288 1016.65 218.752C1023.51 215.216 1031.42 213.448 1040.36 213.448ZM1040.36 232.636C1036.2 232.636 1032.51 233.624 1029.29 235.6C1026.17 237.576 1023.72 240.384 1021.95 244.024C1020.19 247.56 1019.3 251.668 1019.3 256.348C1019.3 261.028 1020.19 265.188 1021.95 268.828C1023.72 272.364 1026.17 275.172 1029.29 277.252C1032.51 279.228 1036.2 280.216 1040.36 280.216C1044.52 280.216 1048.16 279.228 1051.28 277.252C1054.4 275.172 1056.85 272.364 1058.61 268.828C1060.38 265.188 1061.27 261.028 1061.27 256.348C1061.27 251.668 1060.38 247.56 1058.61 244.024C1056.85 240.384 1054.4 237.576 1051.28 235.6C1048.16 233.624 1044.52 232.636 1040.36 232.636Z" fill="black"/>
<path d="M1088.03 214.228H1115.48L1130.93 240.124L1147.31 214.228H1173.51L1146.84 255.1L1175.39 298H1147.77L1130.93 270.076L1112.52 298H1086L1115.01 255.1L1088.03 214.228Z" fill="black"/>
<path d="M631.051 344.8H714.199V364.612H655.699V389.26H708.271V409.072H655.699V434.188H715.915V454H631.051V344.8Z" fill="black"/>
<path d="M794.534 408.136C794.534 402.624 793.026 398.308 790.01 395.188C787.098 392.068 783.094 390.508 777.998 390.508C772.07 390.612 767.39 392.744 763.958 396.904C760.526 401.064 758.81 406.316 758.81 412.66H752.726C752.726 402.884 754.13 394.824 756.938 388.48C759.85 382.032 763.906 377.248 769.106 374.128C774.41 370.904 780.65 369.292 787.826 369.292C794.066 369.292 799.474 370.644 804.05 373.348C808.73 375.948 812.318 379.64 814.814 384.424C817.31 389.208 818.558 394.876 818.558 401.428V454H794.534V408.136ZM734.786 370.228H758.81V454H734.786V370.228Z" fill="black"/>
<path d="M917.918 446.2C917.918 454.104 916.046 460.968 912.302 466.792C908.558 472.616 903.358 477.088 896.702 480.208C890.046 483.432 882.194 485.044 873.146 485.044C866.074 485.044 859.418 484.004 853.178 481.924C847.042 479.948 841.53 477.348 836.642 474.124L845.534 457.9C849.382 460.604 853.49 462.684 857.858 464.14C862.226 465.7 866.802 466.48 871.586 466.48C876.162 466.48 880.114 465.648 883.442 463.984C886.874 462.424 889.474 460.136 891.242 457.12C893.114 454.208 894.05 450.776 894.05 446.824V370.228H917.918V446.2ZM868.154 369.448C875.226 369.344 881.258 370.904 886.25 374.128C891.242 377.352 895.038 381.98 897.638 388.012C900.342 393.94 901.642 401.064 901.538 409.384C901.642 417.704 900.394 424.88 897.794 430.912C895.194 436.944 891.45 441.572 886.562 444.796C881.674 448.02 875.746 449.632 868.778 449.632C861.498 449.632 855.102 447.968 849.59 444.64C844.182 441.208 839.918 436.476 836.798 430.444C833.678 424.308 832.118 417.236 832.118 409.228C832.118 401.22 833.626 394.304 836.642 388.48C839.658 382.552 843.87 377.924 849.278 374.596C854.79 371.164 861.082 369.448 868.154 369.448ZM874.394 387.388C870.546 387.388 867.114 388.324 864.098 390.196C861.082 392.068 858.742 394.72 857.078 398.152C855.518 401.48 854.686 405.38 854.582 409.852C854.686 414.22 855.518 418.12 857.078 421.552C858.742 424.88 861.03 427.48 863.942 429.352C866.958 431.224 870.442 432.16 874.394 432.16C878.242 432.16 881.622 431.224 884.534 429.352C887.55 427.48 889.89 424.88 891.554 421.552C893.218 418.12 894.05 414.22 894.05 409.852C894.05 405.38 893.218 401.48 891.554 398.152C889.89 394.72 887.55 392.068 884.534 390.196C881.622 388.324 878.242 387.388 874.394 387.388Z" fill="black"/>
<path d="M939.841 370.228H963.865V454H939.841V370.228ZM951.853 333.256C955.701 333.256 958.821 334.504 961.213 337C963.709 339.496 964.957 342.616 964.957 346.36C964.957 350.104 963.709 353.224 961.213 355.72C958.821 358.216 955.701 359.464 951.853 359.464C948.213 359.464 945.145 358.216 942.649 355.72C940.153 353.224 938.905 350.104 938.905 346.36C938.905 342.616 940.153 339.496 942.649 337C945.145 334.504 948.213 333.256 951.853 333.256Z" fill="black"/>
<path d="M1046.66 408.136C1046.66 402.624 1045.16 398.308 1042.14 395.188C1039.23 392.068 1035.22 390.508 1030.13 390.508C1024.2 390.612 1019.52 392.744 1016.09 396.904C1012.66 401.064 1010.94 406.316 1010.94 412.66H1004.86C1004.86 402.884 1006.26 394.824 1009.07 388.48C1011.98 382.032 1016.04 377.248 1021.24 374.128C1026.54 370.904 1032.78 369.292 1039.96 369.292C1046.2 369.292 1051.6 370.644 1056.18 373.348C1060.86 375.948 1064.45 379.64 1066.94 384.424C1069.44 389.208 1070.69 394.876 1070.69 401.428V454H1046.66V408.136ZM986.915 370.228H1010.94V454H986.915V370.228Z" fill="black"/>
<path d="M1146.18 405.328C1146.07 401.48 1145.24 398.204 1143.68 395.5C1142.23 392.692 1140.09 390.508 1137.29 388.948C1134.48 387.388 1131.25 386.608 1127.61 386.608C1123.56 386.608 1120.02 387.648 1117.01 389.728C1113.99 391.808 1111.65 394.668 1109.99 398.308C1108.32 401.948 1107.49 406.16 1107.49 410.944C1107.49 416.352 1108.43 420.98 1110.3 424.828C1112.17 428.676 1114.82 431.64 1118.25 433.72C1121.69 435.8 1125.64 436.84 1130.11 436.84C1138.22 436.84 1145.29 433.824 1151.33 427.792L1163.96 440.272C1159.8 444.952 1154.65 448.54 1148.52 451.036C1142.49 453.532 1135.67 454.78 1128.08 454.78C1119.14 454.78 1111.39 453.012 1104.84 449.476C1098.29 445.94 1093.19 441 1089.55 434.656C1086.01 428.208 1084.25 420.772 1084.25 412.348C1084.25 403.716 1086.07 396.228 1089.71 389.884C1093.35 383.436 1098.39 378.444 1104.84 374.908C1111.39 371.372 1118.93 369.552 1127.46 369.448C1137.34 369.448 1145.4 371.528 1151.64 375.688C1157.98 379.744 1162.56 385.516 1165.37 393.004C1168.28 400.388 1169.37 409.176 1168.64 419.368H1104.06V405.328H1146.18Z" fill="black"/>
</svg>
